<?xml version="1.0" standalone="no"?><!DOCTYPE svg PUBLIC "-//W3C//DTD SVG 20010904//EN"
 "http://www.w3.org/TR/2001/REC-SVG-20010904/DTD/svg10.dtd"><svg version="1.0" xmlns="http://www.w3.org/2000/svg" width="1500.000000pt" height="1500.000000pt" viewBox="0 0 1500.000000 1500.000000" preserveAspectRatio="xMidYMid meet"><g transform="translate(0.000000,1500.000000) scale(0.100000,-0.100000)" fill="#e7414d" stroke="none"><path d="M5435 12879 c-153 -28 -464 -91 -490 -99 -16 -6 -133 -35 -260 -65
-126 -30 -239 -59 -250 -64 -11 -5 -102 -33 -203 -61 -100 -28 -195 -58 -210
-66 -15 -8 -32 -14 -37 -14 -15 0 -304 -95 -346 -114 -19 -8 -68 -27 -109 -41
-94 -34 -445 -172 -485 -192 -16 -8 -77 -35 -135 -60 -212 -90 -247 -110 -280
-158 -16 -24 -30 -48 -30 -53 0 -6 -4 -12 -9 -14 -5 -1 -35 -46 -67 -98 -32
-52 -61 -96 -66 -98 -4 -2 -8 -7 -8 -11 0 -5 -25 -48 -55 -97 -72 -119 -166
-277 -235 -399 -31 -55 -63 -111 -72 -125 -29 -47 -237 -442 -274 -520 -14
-30 -61 -128 -105 -218 -43 -90 -79 -165 -79 -167 0 -2 -20 -46 -44 -97 -24
-51 -60 -136 -81 -188 -21 -52 -42 -100 -46 -105 -10 -14 -108 -262 -176 -450
-30 -82 -66 -177 -78 -210 -38 -96 -150 -447 -195 -610 -23 -82 -46 -159 -51
-170 -5 -11 -34 -123 -65 -250 -146 -597 -230 -1076 -289 -1645 -8 -80 -17
-159 -20 -175 -16 -89 -37 -542 -42 -915 -7 -510 13 -1062 49 -1338 11 -89 13
-93 47 -119 20 -15 41 -31 46 -36 6 -4 42 -30 80 -57 99 -70 198 -140 248
-176 23 -16 80 -55 127 -84 47 -30 87 -57 90 -61 8 -10 359 -229 367 -229 2 0
19 -11 36 -23 18 -13 64 -41 102 -62 39 -21 77 -43 85 -50 8 -7 65 -38 125
-70 61 -32 115 -62 122 -67 23 -19 366 -192 553 -280 47 -22 117 -55 155 -73
39 -18 97 -45 130 -59 33 -14 123 -52 200 -84 77 -33 173 -71 213 -86 41 -14
83 -31 94 -37 12 -6 91 -36 177 -65 86 -30 165 -59 176 -64 25 -13 335 -110
350 -110 12 0 55 52 111 135 22 33 54 80 70 105 109 161 253 389 315 501 147
261 269 489 269 503 0 2 -35 16 -77 31 -43 15 -82 31 -88 35 -5 4 -50 24 -100
45 -178 72 -564 263 -738 364 -49 28 -91 51 -93 51 -2 0 -23 12 -45 26 l-40
25 46 37 c26 20 90 72 143 114 l96 77 35 -19 c76 -38 171 -80 272 -121 57 -23
109 -45 114 -49 6 -4 62 -26 125 -49 63 -23 156 -57 205 -76 138 -52 445 -150
595 -189 74 -20 155 -42 180 -51 57 -18 325 -76 485 -105 66 -11 136 -25 155
-30 68 -19 445 -66 730 -92 227 -20 1074 -17 1310 5 192 18 556 63 625 77 22
4 112 22 200 39 205 39 373 76 455 100 36 11 137 38 225 61 88 23 174 48 190
55 17 7 107 38 200 68 189 61 433 152 528 196 34 15 94 41 132 56 39 15 93 39
120 52 28 14 73 35 101 48 l51 23 35 -32 c18 -17 69 -58 113 -91 43 -33 89
-70 102 -82 l24 -21 -28 -20 c-15 -10 -68 -41 -118 -67 -49 -26 -97 -54 -105
-60 -43 -35 -450 -233 -640 -312 -58 -23 -116 -49 -130 -56 -14 -8 -53 -24
-87 -37 -35 -12 -63 -28 -63 -34 0 -6 21 -53 48 -103 105 -205 145 -280 169
-318 13 -22 73 -122 133 -222 60 -100 114 -188 120 -195 6 -7 34 -50 63 -94
74 -115 178 -266 199 -288 18 -19 19 -19 115 8 118 34 528 177 608 212 17 7
91 36 164 64 74 28 140 54 145 59 6 4 54 25 106 46 52 21 137 57 188 81 51 24
95 44 97 44 2 0 86 40 187 89 336 163 679 351 982 536 49 30 91 55 93 55 2 0
30 18 61 39 31 21 125 83 207 137 83 54 152 101 155 104 3 4 41 30 84 59 44
29 85 58 92 65 7 6 43 31 80 56 36 25 92 66 124 92 l58 48 5 67 c3 38 12 160
21 273 26 342 38 876 26 1238 -11 359 -26 624 -40 722 -5 36 -14 119 -20 185
-36 388 -104 828 -194 1255 -36 168 -123 534 -149 625 -8 28 -40 140 -72 249
-31 110 -61 207 -66 215 -4 9 -31 90 -60 181 -28 91 -57 179 -65 195 -7 17
-36 93 -63 170 -102 287 -245 627 -418 995 -63 134 -262 529 -286 568 -13 20
-38 66 -56 102 -18 36 -48 90 -66 120 -17 30 -49 86 -71 124 -21 37 -44 76
-49 85 -6 9 -28 48 -49 86 -22 39 -49 84 -61 100 -11 17 -34 53 -50 80 -30 54
-71 118 -201 316 -93 142 -91 141 -314 235 -58 24 -123 53 -145 64 -54 27
-380 156 -485 192 -47 16 -98 36 -115 43 -88 41 -659 219 -915 287 -370 97
-891 208 -975 208 -16 0 -40 -39 -122 -202 -109 -216 -171 -349 -218 -463 -16
-38 -33 -75 -39 -81 -8 -9 -33 -9 -101 2 -766 117 -1745 135 -2605 48 -155
-15 -192 -20 -370 -48 -52 -8 -97 -12 -101 -8 -3 4 -18 39 -34 77 -46 113
-175 380 -286 593 -48 91 -46 90 -154 71z m767 -3175 c112 -64 250 -143 307
-176 58 -32 110 -63 115 -67 6 -4 36 -22 66 -38 30 -17 71 -39 90 -50 106 -61
463 -266 575 -331 72 -41 159 -92 195 -112 36 -20 81 -46 100 -57 19 -11 109
-63 200 -115 91 -52 242 -139 335 -193 94 -54 215 -124 270 -155 55 -31 208
-119 340 -195 132 -76 285 -164 340 -196 542 -308 828 -475 829 -482 1 -5 -21
-21 -49 -36 -55 -30 -97 -54 -384 -220 -106 -61 -195 -111 -198 -111 -2 0 -9
-5 -16 -10 -10 -9 -221 -131 -377 -218 -25 -13 -49 -28 -55 -32 -5 -4 -62 -37
-125 -73 -63 -35 -153 -86 -200 -113 -47 -27 -93 -53 -103 -59 -9 -5 -130 -75
-269 -155 -138 -80 -288 -166 -332 -191 -152 -86 -251 -142 -286 -164 -36 -22
-153 -89 -270 -155 -36 -20 -184 -106 -330 -190 -146 -84 -310 -178 -365 -210
-171 -97 -304 -173 -469 -268 -88 -51 -161 -92 -163 -92 -2 0 -3 1033 -3 2296
0 2031 2 2295 15 2290 8 -3 106 -58 217 -122z"/></g></svg>