<svg xmlns="http://www.w3.org/2000/svg" version="1.1" width="1440" height="560" preserveAspectRatio="none"><g mask="url(#SvgjsMask1189)" fill="none"><rect width="1440" height="560" x="0" y="0" fill="rgba(50, 34, 73, 1)"/><path d="M1464 560L0 560 L0 267.02Q9.32 204.33, 72 213.65Q102.51 172.16, 144 202.67Q228.05 166.72, 264 250.77Q313.93 228.7, 336 278.63Q378.13 248.76, 408 290.89Q427.6 190.49, 528 210.09Q573.19 135.28, 648 180.47Q749.68 162.15, 768 263.83Q785.4 209.23, 840 226.64Q882.95 197.59, 912 240.54Q967.77 224.31, 984 280.09Q988.46 212.54, 1056 217Q1072.86 161.86, 1128 178.71Q1176.34 155.05, 1200 203.38Q1268.62 200, 1272 268.62Q1288.18 212.81, 1344 228.99Q1375.65 140.65, 1464 172.3z" fill="rgba(94, 72, 129, 1)"/><path d="M1488 560L0 560 L0 357.97Q28.12 266.09, 120 294.21Q168.13 270.34, 192 318.47Q245.2 251.67, 312 304.87Q363.95 284.82, 384 336.78Q433.55 314.32, 456 363.87Q488.95 276.82, 576 309.77Q596.1 257.87, 648 277.97Q691.12 249.09, 720 292.2Q823.31 275.51, 840 378.82Q863.73 282.55, 960 306.28Q978.27 252.55, 1032 270.83Q1078.42 245.25, 1104 291.67Q1188.47 256.14, 1224 340.61Q1249.4 294.01, 1296 319.42Q1329.83 233.25, 1416 267.07Q1462.6 241.67, 1488 288.27z" fill="rgba(156, 131, 201, 1)"/><path d="M1512 560L0 560 L0 376.39Q51.51 355.9, 72 407.42Q123.79 339.21, 192 390.99Q217.82 344.81, 264 370.63Q348.15 334.78, 384 418.94Q446.79 409.73, 456 472.52Q470.92 415.44, 528 430.35Q558.75 341.11, 648 371.86Q695.54 347.4, 720 394.94Q766.9 369.84, 792 416.74Q875.09 379.83, 912 462.92Q953.55 432.47, 984 474.02Q998.04 416.06, 1056 430.11Q1088.48 342.59, 1176 375.07Q1222.58 349.64, 1248 396.22Q1348.81 377.03, 1368 477.84Q1392.61 430.45, 1440 455.06Q1457.09 400.15, 1512 417.24z" fill="rgba(212, 201, 233, 1)"/><path d="M1464 560L0 560 L0 578.91Q65.5 524.4, 120 589.9Q123.05 520.95, 192 524Q208.06 468.06, 264 484.12Q294.25 442.37, 336 472.61Q433.32 449.93, 456 547.25Q499.55 518.8, 528 562.35Q554.5 468.85, 648 495.34Q715.62 442.95, 768 510.57Q784.35 454.92, 840 471.27Q910.89 422.16, 960 493.05Q1036.05 449.1, 1080 525.14Q1140.76 513.9, 1152 574.66Q1194.75 497.41, 1272 540.16Q1343.8 491.96, 1392 563.77Q1397.27 497.03, 1464 502.3z" fill="rgba(249, 248, 252, 1)"/></g><defs><mask id="SvgjsMask1189"><rect width="1440" height="560" fill="white"/></mask></defs></svg>