<svg xmlns="http://www.w3.org/2000/svg" version="1.1" width="1440" height="560" preserveAspectRatio="none"><g mask="url(#SvgjsMask1671)" fill="none"><rect width="1440" height="560" x="0" y="0" fill="url(#SvgjsLinearGradient1672)"/><path d="M1440 0L1421.68 0L1440 9.61z" fill="rgba(255, 255, 255, 0.1)"/><path d="M1421.68 0L1440 9.61L1440 194.66L1147.76 0z" fill="rgba(255, 255, 255, 0.075)"/><path d="M1147.76 0L1440 194.66L1440 303.46L1031.01 0z" fill="rgba(255, 255, 255, 0.05)"/><path d="M1031.01 0L1440 303.46L1440 483.88L641.56 0z" fill="rgba(255, 255, 255, 0.025)"/><path d="M0 560L662.24 560L0 297.45z" fill="rgba(0, 0, 0, 0.1)"/><path d="M0 297.45L662.24 560L686.04 560L0 237.44z" fill="rgba(0, 0, 0, 0.075)"/><path d="M0 237.44L686.04 560L758.3 560L0 123.53z" fill="rgba(0, 0, 0, 0.05)"/><path d="M0 123.53L758.3 560L1103.53 560L0 111.58z" fill="rgba(0, 0, 0, 0.025)"/></g><defs><mask id="SvgjsMask1671"><rect width="1440" height="560" fill="white"/></mask><linearGradient x1="15.28%" y1="-39.29%" x2="84.72%" y2="139.29%" gradientUnits="userSpaceOnUse" id="SvgjsLinearGradient1672"><stop stop-color="rgba(245, 244, 241, 1)" offset="0%"/><stop stop-color="rgba(125, 103, 81, 1)" offset="100%"/></linearGradient></defs></svg>